<svg width="16" height="15" viewBox="0 0 16 15" fill="currentColor" xmlns="http://www.w3.org/2000/svg">
<path d="M11.7496 0.00312097L9.80446 0C7.61916 0 6.20692 1.44891 6.20692 3.69148V5.3935H4.25117C4.21099 5.3935 4.1712 5.40142 4.13409 5.4168C4.09697 5.43218 4.06324 5.45472 4.03484 5.48314C4.00644 5.51156 3.98391 5.54529 3.96855 5.58242C3.95319 5.61955 3.94529 5.65933 3.94531 5.69951V8.16555C3.94531 8.24666 3.97754 8.32446 4.0349 8.38182C4.09225 8.43918 4.17005 8.4714 4.25117 8.4714H6.20692V14.694C6.20692 14.7751 6.23915 14.8529 6.2965 14.9103C6.35386 14.9676 6.43166 14.9998 6.51278 14.9998H9.06448C9.1456 14.9998 9.22339 14.9676 9.28075 14.9103C9.33811 14.8529 9.37034 14.7751 9.37034 14.694V8.4714H11.6571C11.7382 8.4714 11.816 8.43918 11.8733 8.38182C11.9307 8.32446 11.9629 8.24666 11.9629 8.16555L11.9639 5.69951C11.9638 5.61838 11.9315 5.54059 11.8741 5.48322C11.8168 5.42585 11.739 5.39358 11.6578 5.3935H9.37034V3.95068C9.37034 3.2572 9.53559 2.90515 10.439 2.90515L11.7493 2.90469C11.8304 2.90464 11.9081 2.8724 11.9655 2.81505C12.0228 2.75769 12.055 2.67992 12.055 2.59883V0.308976C12.055 0.227939 12.0228 0.150215 11.9656 0.0928691C11.9083 0.0355237 11.8306 0.003245 11.7496 0.00312097Z" fill="currentColor"/>
</svg>
