<svg width="12" height="13" viewBox="0 0 12 13" fill="currentColor" xmlns="http://www.w3.org/2000/svg">
<path d="M12 12.5V8.105C12 5.945 11.535 4.295 9.015 4.295C7.8 4.295 6.99 4.955 6.66 5.585H6.63V4.49H4.245V12.5H6.735V8.525C6.735 7.475 6.93 6.47 8.22 6.47C9.495 6.47 9.51 7.655 9.51 8.585V12.485H12V12.5ZM0.195 4.49H2.685V12.5H0.195V4.49ZM1.44 0.5C0.645 0.5 0 1.145 0 1.94C0 2.735 0.645 3.395 1.44 3.395C2.235 3.395 2.88 2.735 2.88 1.94C2.88 1.145 2.235 0.5 1.44 0.5Z" fill="currentColor"/>
</svg>
