<svg width="16" height="15" viewBox="0 0 16 15" fill="currentColor" xmlns="http://www.w3.org/2000/svg">
<path d="M9.171 1.54971L8.15088 2.56982C8.0156 2.7051 7.93961 2.88857 7.93961 3.07988C7.93961 3.27119 8.0156 3.45467 8.15088 3.58994C8.28615 3.72522 8.46963 3.80121 8.66094 3.80122C8.85225 3.80122 9.03572 3.72522 9.171 3.58994L10.1911 2.56983C10.5969 2.164 11.1474 1.936 11.7213 1.93601C12.2952 1.93601 12.8456 2.164 13.2515 2.56983C13.6573 2.97565 13.8853 3.52607 13.8853 4.1C13.8853 4.67393 13.6573 5.22435 13.2515 5.63018L12.2313 6.65029C12.0961 6.78557 12.0201 6.96904 12.0201 7.16035C12.0201 7.35166 12.0961 7.53513 12.2313 7.67041C12.3666 7.80569 12.5501 7.88168 12.7414 7.88168C12.9327 7.88168 13.1162 7.80569 13.2515 7.67041L14.2716 6.65029C14.948 5.97391 15.3279 5.05655 15.3279 4.1C15.3279 3.14346 14.948 2.22609 14.2716 1.54971C13.5952 0.873328 12.6778 0.493342 11.7213 0.493342C10.7647 0.493342 9.84738 0.873328 9.171 1.54971ZM4.07041 6.65029L3.05029 7.67041C2.37391 8.34679 1.99393 9.26416 1.99393 10.2207C1.99393 11.1772 2.37391 12.0946 3.05029 12.771C3.72667 13.4474 4.64404 13.8274 5.60059 13.8274C6.55713 13.8274 7.4745 13.4474 8.15088 12.771L9.171 11.7509C9.30627 11.6156 9.38227 11.4321 9.38227 11.2408C9.38227 11.0495 9.30627 10.866 9.171 10.7308C9.03572 10.5955 8.85225 10.5195 8.66094 10.5195C8.46963 10.5195 8.28615 10.5955 8.15088 10.7308L7.13076 11.7509C6.72493 12.1567 6.17451 12.3847 5.60059 12.3847C5.02666 12.3847 4.47624 12.1567 4.07041 11.7509C3.66458 11.3451 3.43659 10.7946 3.43659 10.2207C3.43659 9.64678 3.66458 9.09636 4.07041 8.69053L5.09053 7.67041C5.2258 7.53513 5.3018 7.35166 5.3018 7.16035C5.3018 6.96904 5.2258 6.78557 5.09053 6.65029C4.95525 6.51502 4.77178 6.43902 4.58047 6.43902C4.38916 6.43902 4.20569 6.51502 4.07041 6.65029Z" fill="currentColor"/>
<path d="M6.10771 9.70928C6.24299 9.84455 6.42646 9.92055 6.61777 9.92055C6.80908 9.92055 6.99256 9.84455 7.12783 9.70928L11.2083 5.62881C11.3436 5.49353 11.4196 5.31006 11.4196 5.11875C11.4196 4.92744 11.3436 4.74397 11.2083 4.60869C11.073 4.47342 10.8896 4.39742 10.6982 4.39742C10.5069 4.39742 10.3235 4.47342 10.1882 4.60869L6.10771 8.68916C5.97244 8.82444 5.89644 9.00791 5.89644 9.19922C5.89644 9.39053 5.97244 9.574 6.10771 9.70928Z" fill="currentColor"/>
</svg>
