<svg width="25" height="25" viewBox="0 0 25 25" fill="none" xmlns="http://www.w3.org/2000/svg">
<path d="M12.4999 5.71823C13.2577 5.71768 13.9844 5.41653 14.5204 4.88087C15.0565 4.3452 15.3581 3.61876 15.3592 2.86094C15.3592 1.28333 14.0764 0 12.4999 0C10.9233 0 9.6405 1.28333 9.6405 2.86042C9.6416 3.61829 9.94326 4.34478 10.4793 4.88053C11.0153 5.41628 11.742 5.71754 12.4999 5.71823ZM20.9832 13.5432C20.9832 9.86927 17.1775 6.88021 12.4999 6.88021C7.82227 6.88021 4.01654 9.86927 4.01654 13.5432V13.6802H20.9832V13.5432ZM4.97227 16.374H0.345703C0.457682 17.8099 1.00612 19.1568 1.89102 20.3422H5.72487C5.2905 19.1318 5.02695 17.7911 4.97227 16.374ZM6.17643 21.4365H2.84987C4.27331 22.8354 6.21497 23.9167 8.45612 24.5151C7.54466 23.7214 6.76602 22.6724 6.17643 21.4365ZM6.8806 20.3422H11.9525V16.374H6.0655C6.12591 17.8089 6.41185 19.1562 6.8806 20.3422ZM11.9525 25V21.4365H7.39206C8.46914 23.4281 10.0983 24.776 11.9525 25ZM18.1191 20.3422C18.5879 19.1568 18.8738 17.8094 18.9337 16.374H13.0473V20.3422H18.1191ZM13.0473 21.4365V25C14.902 24.776 16.5311 23.4281 17.6077 21.4365H13.0473ZM20.0275 16.374C19.9728 17.7917 19.7092 19.1323 19.2749 20.3422H23.1087C23.9936 19.1568 24.5421 17.8099 24.654 16.374H20.0275ZM16.5441 24.5151C18.7853 23.9167 20.7264 22.8349 22.1504 21.4365H18.8233C18.2337 22.6724 17.4551 23.7214 16.5441 24.5151Z" fill="black"/>
</svg>
