<svg width="16" height="15" viewBox="0 0 16 15" fill="currentColor" xmlns="http://www.w3.org/2000/svg">
<path d="M8.00547 0C3.86672 0 0.511719 3.355 0.511719 7.49375C0.511719 10.67 2.48547 13.3837 5.27297 14.4756C5.20484 13.8837 5.14984 12.9706 5.29734 12.3231C5.43297 11.7369 6.17297 8.5975 6.17297 8.5975C6.17297 8.5975 5.95109 8.1475 5.95109 7.4875C5.95109 6.445 6.55547 5.66813 7.30797 5.66813C7.94922 5.66813 8.25797 6.14937 8.25797 6.72312C8.25797 7.36438 7.85109 8.32687 7.63484 9.22125C7.45609 9.9675 8.01109 10.5781 8.74484 10.5781C10.0773 10.5781 11.1011 9.17188 11.1011 7.14875C11.1011 5.35375 9.81234 4.10188 7.96797 4.10188C5.83422 4.10188 4.58172 5.69938 4.58172 7.3525C4.58172 7.99375 4.82859 8.685 5.13672 9.06125C5.19922 9.13437 5.20547 9.2025 5.18672 9.27625C5.13109 9.51062 5.00172 10.0225 4.97672 10.1275C4.94609 10.2631 4.86547 10.2937 4.72359 10.2262C3.78609 9.78813 3.19984 8.425 3.19984 7.32125C3.19984 4.95875 4.91422 2.78813 8.15234 2.78813C10.7492 2.78813 12.7717 4.63875 12.7717 7.11812C12.7717 9.7025 11.1436 11.7812 8.88609 11.7812C8.12734 11.7812 7.41172 11.3863 7.17172 10.9175C7.17172 10.9175 6.79547 12.3481 6.70297 12.7C6.53672 13.3538 6.07984 14.1681 5.77172 14.6675C6.47547 14.8825 7.21609 15 7.99297 15C12.1317 15 15.4867 11.645 15.4867 7.50625C15.4992 3.355 12.1442 0 8.00547 0Z" fill="currentColor"/>
</svg>
