<svg width="16" height="15" viewBox="0 0 16 15" fill="currentColor" xmlns="http://www.w3.org/2000/svg">
<path fill-rule="evenodd" clip-rule="evenodd" d="M13.2889 2.18C11.8852 0.775 10.0189 0.000625 8.03078 0C3.93391 0 0.599531 3.33375 0.597656 7.4325C0.597031 8.7425 0.939531 10.0212 1.59016 11.1487L0.535156 15L4.47516 13.9663C5.56078 14.5588 6.78328 14.8706 8.02703 14.8713H8.03016C12.1264 14.8713 15.4614 11.5369 15.4633 7.43813C15.4645 5.4525 14.692 3.58437 13.2889 2.18ZM8.03078 13.6156H8.02828C6.91953 13.6156 5.83266 13.3175 4.88391 12.7544L4.65828 12.6206L2.32016 13.2337L2.94453 10.9537L2.79766 10.72C2.17891 9.73625 1.85266 8.59937 1.85328 7.4325C1.85453 4.02625 4.62641 1.255 8.03391 1.255C9.68391 1.255 11.2352 1.89875 12.4014 3.06625C13.5677 4.23438 14.2095 5.78625 14.2089 7.43688C14.207 10.8444 11.4358 13.6156 8.03078 13.6156ZM11.4195 8.98875C11.2339 8.89563 10.3208 8.44625 10.1502 8.38437C9.98016 8.3225 9.85641 8.29125 9.73203 8.47688C9.60766 8.6625 9.25266 9.08125 9.14391 9.20563C9.03578 9.32938 8.92703 9.345 8.74141 9.25187C8.55578 9.15875 7.95703 8.96313 7.24766 8.33C6.69578 7.8375 6.32266 7.22937 6.21453 7.04313C6.10641 6.85687 6.20328 6.75688 6.29578 6.66438C6.37953 6.58125 6.48141 6.4475 6.57453 6.33875C6.66828 6.23125 6.69891 6.15375 6.76141 6.02938C6.82328 5.90563 6.79266 5.79688 6.74578 5.70375C6.69891 5.61125 6.32766 4.69688 6.17328 4.325C6.02266 3.9625 5.86953 4.01187 5.75516 4.00625C5.64703 4.00063 5.52328 4 5.39891 4C5.27516 4 5.07391 4.04625 4.90391 4.2325C4.73391 4.41875 4.25391 4.86813 4.25391 5.78188C4.25391 6.69625 4.91953 7.57937 5.01203 7.70312C5.10453 7.82687 6.32141 9.70312 8.18453 10.5075C8.62766 10.6988 8.97391 10.8131 9.24328 10.8988C9.68828 11.04 10.0933 11.02 10.4133 10.9725C10.7702 10.9194 11.512 10.5231 11.667 10.0894C11.822 9.65562 11.822 9.28312 11.7752 9.20625C11.7289 9.12812 11.6052 9.08187 11.4195 8.98875Z" fill="currentColor"/>
</svg>
