<svg width="20" height="13" viewBox="0 0 20 13" fill="currentColor" xmlns="http://www.w3.org/2000/svg">
<path d="M15.9354 11.8287L19.2012 8.56285C19.7315 8.00714 20.0274 7.2685 20.0274 6.50035C20.0274 5.7322 19.7315 4.99357 19.2012 4.43785L15.9354 1.17202C15.701 0.937524 15.3831 0.805742 15.0515 0.805664C14.72 0.805586 14.402 0.937219 14.1675 1.1716C13.933 1.40599 13.8012 1.72393 13.8011 2.05548C13.801 2.38702 13.9327 2.70502 14.1671 2.93952L16.4837 5.25702L1.27539 5.27619C0.94387 5.27619 0.625928 5.40788 0.391507 5.6423C0.157087 5.87672 0.0253906 6.19467 0.0253906 6.52619C0.0253906 6.85771 0.157087 7.17565 0.391507 7.41007C0.625928 7.64449 0.94387 7.77619 1.27539 7.77619L16.4679 7.75702L14.1671 10.0612C13.9394 10.2969 13.8134 10.6127 13.8162 10.9404C13.8191 11.2682 13.9505 11.5817 14.1823 11.8135C14.414 12.0452 14.7276 12.1767 15.0553 12.1795C15.3831 12.1824 15.6996 12.0564 15.9354 11.8287Z" fill="currentColor"/>
</svg>
