<svg width="726" height="416" viewBox="0 0 726 416" fill="none" xmlns="http://www.w3.org/2000/svg">
<g clip-path="url(#clip0_53_324)">
<path d="M667.927 274.403C687.55 274.403 703.426 260.007 717.802 246.967C722.376 242.818 726.7 238.899 730.916 235.666L730.147 234.657C725.889 237.923 721.549 241.857 716.954 246.024C698.84 262.453 678.309 281.073 651.047 269.516C632.903 261.818 613.788 241.924 591.652 218.887C579.395 206.13 565.502 191.671 550.149 177.613C503.763 135.159 448.581 102.306 381.451 77.1784C316.346 52.8131 246.34 38.1493 186.443 27.0197C102.623 11.452 41.5121 3.58533 30.114 2.16626L29.9576 3.42565C41.3499 4.84171 102.428 12.7054 186.215 28.264C312.491 51.7314 444.542 82.6649 549.296 178.547C564.619 192.578 578.496 207.019 590.742 219.764C612.973 242.9 632.173 262.881 650.552 270.679C656.67 273.27 662.446 274.394 667.927 274.394V274.403Z" fill="#C3F7F7"/>
<path d="M29.7981 5.69742C28.2385 5.48351 27.1416 4.04334 27.355 2.47664C27.5653 0.90993 29.0047 -0.186765 30.5674 0.0271503C32.13 0.241066 33.2239 1.68123 33.0105 3.24794C32.7972 4.81464 31.3608 5.91134 29.7981 5.69742Z" fill="#C3F7F7"/>
<path d="M651.311 312.305C678.221 312.305 701.531 289.615 720.608 271.055C724.253 267.509 727.694 264.162 730.957 261.173L730.104 260.236C726.825 263.237 723.378 266.593 719.727 270.142C698.971 290.341 673.122 315.468 643.426 310.359C624.22 307.038 603.942 291.558 580.463 273.634C568.777 264.713 555.53 254.602 541.154 245.063C493.869 213.705 438.802 193.109 372.795 182.099C310.278 171.672 244.167 171.03 187.741 171.774C109.173 172.823 52.2692 176.866 41.6583 177.667L41.7545 178.93C52.3593 178.131 109.23 174.088 187.759 173.04C302.783 171.53 434.411 175.79 540.457 246.118C554.797 255.635 567.454 265.295 579.697 274.641C603.311 292.664 623.703 308.228 643.212 311.603C645.947 312.073 648.648 312.296 651.314 312.296L651.311 312.305Z" fill="#FFDA35"/>
<path d="M42.0406 181.193C40.469 181.292 39.1107 180.096 39.0115 178.517C38.9123 176.941 40.1053 175.583 41.68 175.48C43.2516 175.381 44.6099 176.577 44.7091 178.156C44.8083 179.734 43.6153 181.093 42.0406 181.193Z" fill="#FFDA35"/>
<path d="M657.364 296.719C681.627 296.719 702.392 277.084 719.488 260.917C723.527 257.1 727.337 253.493 730.943 250.39L730.117 249.426C726.493 252.547 722.67 256.165 718.62 259.992C699.357 278.205 675.365 300.874 647.3 294.276C628.035 289.741 607.859 272.312 584.501 252.128C573.385 242.523 561.887 232.593 548.987 222.608C457.173 151.6 351.112 130.398 220.109 120.41C151.116 115.156 101.791 114.394 88.3163 114.285L88.3073 115.554C101.773 115.662 151.065 116.424 220.016 121.676C350.794 131.648 456.653 152.802 548.217 223.614C561.094 233.578 572.573 243.496 583.68 253.089C607.165 273.381 627.449 290.907 647.018 295.511C650.537 296.336 653.987 296.719 657.37 296.719H657.364Z" fill="#98AEC4"/>
<path d="M88.4 117.825C86.8253 117.792 85.5722 116.485 85.6052 114.906C85.6383 113.327 86.9425 112.071 88.5171 112.104C90.0918 112.137 91.3449 113.445 91.3119 115.023C91.2788 116.602 89.9746 117.859 88.4 117.825Z" fill="#98AEC4"/>
<path d="M663.814 279.6C685.369 279.6 703.36 263.137 718.365 249.408C722.767 245.379 726.926 241.574 730.926 238.374L730.135 237.383C726.1 240.61 721.926 244.43 717.508 248.474C698.417 265.943 676.772 285.743 649.047 275.653C630.62 268.94 611.21 249.947 588.735 227.953C576.754 216.23 563.177 202.946 548.266 190.09C502.009 150.241 447.404 120.215 381.335 98.2929C317.228 77.0218 248.892 65.5999 190.501 57.2301C109.112 45.5732 49.9661 40.5356 38.9375 39.6438L38.8353 40.9062C49.8579 41.798 108.971 46.8356 190.321 58.4834C308.272 75.3888 442.869 100.965 547.44 191.051C562.321 203.877 575.885 217.149 587.852 228.857C610.432 250.95 629.932 270.034 648.617 276.84C653.867 278.75 658.933 279.594 663.814 279.594V279.6Z" fill="#C3F7F7"/>
<path d="M38.7659 43.1778C37.1973 43.0332 36.0434 41.6382 36.1876 40.0655C36.3319 38.4928 37.7232 37.3328 39.2918 37.4804C40.8605 37.6251 42.0174 39.02 41.8702 40.5928C41.7229 42.1655 40.3346 43.3255 38.7659 43.1778Z" fill="#C3F7F7"/>
<path d="M643.478 331.611C673.95 331.611 702.32 303.061 723.14 282.107C725.874 279.356 728.489 276.722 730.971 274.291L730.087 273.384C727.602 275.819 724.985 278.452 722.244 281.209C701.191 302.395 672.354 331.428 641.777 330.31C621.565 329.569 600.416 315.896 575.93 300.063C565.503 293.321 554.718 286.346 542.782 279.488C450.382 226.419 348.438 222.053 223.806 231.83C158.918 236.925 112.778 243.382 100.184 245.238L100.367 246.494C112.952 244.638 159.053 238.188 223.902 233.093C348.303 223.346 450.033 227.682 542.15 280.588C554.057 287.43 564.827 294.393 575.242 301.127C599.887 317.062 621.166 330.822 641.729 331.575C642.309 331.596 642.895 331.608 643.475 331.608L643.478 331.611Z" fill="#F2F5F8"/>
<path d="M100.815 248.727C99.2523 248.938 97.8189 247.838 97.6086 246.271C97.3982 244.704 98.495 243.264 100.058 243.056C101.62 242.846 103.057 243.945 103.267 245.512C103.477 247.079 102.381 248.519 100.818 248.73L100.815 248.727Z" fill="#F2F5F8"/>
<path d="M645.924 325.791C675.23 325.791 701.004 300.115 721.937 279.256C725.105 276.105 728.092 273.128 730.971 270.362L730.096 269.446C727.211 272.218 724.218 275.201 721.048 278.359C699.108 300.214 671.786 327.399 641.005 324.272C621.526 322.278 600.993 308.298 577.211 292.112C565.464 284.119 552.148 275.056 537.697 266.605C489.727 238.579 433.974 221.731 367.253 215.103C304.798 208.899 238.711 212.442 182.297 216.724C103.48 222.716 46.5553 230.288 35.9444 231.746L36.1187 233.002C46.7235 231.547 103.615 223.976 182.393 217.986C297.83 209.222 429.941 205.112 537.06 267.702C551.475 276.129 564.196 284.788 576.501 293.161C600.422 309.443 621.085 323.504 640.879 325.534C642.571 325.706 644.257 325.791 645.927 325.791H645.924Z" fill="#FF266C"/>
<path d="M36.5356 235.232C34.973 235.428 33.5456 234.316 33.3502 232.749C33.1549 231.183 34.2638 229.751 35.8294 229.556C37.392 229.36 38.8195 230.471 39.0148 232.041C39.2101 233.608 38.1013 235.039 36.5356 235.235V235.232Z" fill="#FF266C"/>
<path d="M648.518 319.346C676.543 319.346 701.239 295.071 721.304 275.346C724.696 272.014 727.9 268.865 730.965 265.985L730.099 265.057C727.022 267.946 723.816 271.101 720.417 274.439C699.343 295.159 673.084 320.925 643.59 317.819C623.747 315.707 602.958 300.732 578.888 283.39C568.105 275.623 556.957 267.591 544.549 259.637C452.083 200.382 347.972 190.551 220.089 194.043C153.091 195.875 105.473 200.075 92.4758 201.316L92.596 202.578C105.584 201.337 153.163 197.14 220.125 195.308C347.771 191.828 451.671 201.626 543.867 260.703C556.247 268.642 567.381 276.662 578.148 284.418C602.363 301.865 623.278 316.93 643.454 319.075C645.155 319.256 646.844 319.343 648.518 319.343V319.346Z" fill="#FFDA35"/>
<path d="M92.9209 204.832C91.3492 204.961 89.9729 203.789 89.8407 202.214C89.7114 200.638 90.8805 199.258 92.4491 199.126C94.0208 198.996 95.3971 200.168 95.5293 201.744C95.6585 203.316 94.4895 204.699 92.9209 204.832Z" fill="#FFDA35"/>
<path d="M654.289 304.737C679.841 304.737 701.685 283.785 719.649 266.551C723.613 262.752 727.354 259.16 730.951 255.964L730.11 255.015C726.495 258.229 722.744 261.827 718.775 265.635C698.662 284.924 673.645 308.927 644.282 302.353C625.395 298.114 605.472 281.95 582.402 263.237C570.198 253.336 556.363 242.116 541.187 231.466C493.431 197.98 437.149 175.269 369.123 162.04C304.737 149.518 235.885 146.843 177.025 145.872C94.4004 144.52 34.5244 146.894 23.3606 147.385L23.4178 148.65C34.5726 148.165 94.4094 145.791 177.004 147.138C302.249 149.199 433.483 157.487 540.466 232.502C555.606 243.126 569.42 254.331 581.608 264.219C604.802 283.032 624.83 299.283 644.009 303.586C647.498 304.369 650.926 304.73 654.289 304.73V304.737Z" fill="#FF266C"/>
<path d="M23.6275 150.913C22.0528 150.964 20.7336 149.723 20.6825 148.144C20.6314 146.565 21.8695 145.243 23.4441 145.191C25.0188 145.14 26.338 146.382 26.3891 147.96C26.4402 149.539 25.2021 150.862 23.6275 150.913Z" fill="#FF266C"/>
<path d="M660.58 288.295C683.494 288.295 702.72 270.392 718.689 255.524C722.983 251.526 727.04 247.751 730.938 244.512L730.129 243.535C726.205 246.798 722.136 250.586 717.829 254.596C698.937 272.188 675.422 294.074 646.907 284.815C628.489 278.823 609.037 260.95 586.517 240.254C573.965 228.721 559.736 215.645 544.001 203.096C436.874 117.708 301.775 98.9043 172.581 86.9612C86.7177 79.0343 24.2935 76.7023 12.6519 76.3167L12.6098 77.5851C24.2454 77.9737 86.6366 80.3027 172.464 88.2236C301.469 100.152 436.36 118.919 543.214 204.091C558.916 216.612 573.124 229.67 585.661 241.191C608.292 261.986 627.834 279.946 646.513 286.023C651.348 287.593 656.036 288.298 660.577 288.298L660.58 288.295Z" fill="#D2DCE5"/>
<path d="M12.6518 79.8507C11.0771 79.7814 9.85705 78.4437 9.92917 76.8649C9.99829 75.2861 11.3325 74.0629 12.9072 74.1322C14.4818 74.2045 15.7019 75.5422 15.6298 77.118C15.5577 78.6967 14.2264 79.92 12.6518 79.8477V79.8507Z" fill="#D2DCE5"/>
<path d="M30.2251 379.438C44.8538 375.024 98.44 359.198 173.849 340.949C288.075 313.326 419.101 287.292 528.471 328.391C542.607 333.706 555.18 339.478 567.344 345.058C592.337 356.528 613.95 366.423 634.565 364.555C670.923 361.228 708.044 321.045 730.222 297.033L730.994 296.198L730.066 295.333L729.293 296.171C707.239 320.048 670.325 360.008 634.447 363.289C614.13 365.142 592.692 355.296 567.867 343.901C555.685 338.312 543.09 332.53 528.913 327.198C419.216 285.978 287.96 312.04 173.549 339.71C98.1095 357.962 44.4932 373.798 29.8585 378.215L30.222 379.429L30.2251 379.438Z" fill="#FF7830"/>
<path d="M30.9919 381.572C29.4774 382.011 27.8967 381.135 27.458 379.619C27.0192 378.101 27.8907 376.516 29.4052 376.076C30.9198 375.636 32.5005 376.51 32.9392 378.028C33.3779 379.547 32.5065 381.132 30.9919 381.572Z" fill="#FF7830"/>
<path d="M636.114 349.451C636.722 349.451 637.326 349.442 637.93 349.418C671.517 348.24 704.564 313.742 726.432 290.913C728 289.274 729.521 287.692 730.984 286.174L730.074 285.294C728.61 286.813 727.09 288.397 725.518 290.039C703.792 312.721 670.955 346.992 637.884 348.152C617.615 348.8 596.237 337.252 571.509 323.817C560.231 317.689 548.568 311.353 535.577 305.294C429.318 255.768 306.044 270.784 198.839 288.747C128.917 300.473 79.2189 311.651 65.6511 314.796L65.9366 316.032C79.4925 312.886 129.16 301.717 199.046 290C306.065 272.062 429.108 257.069 535.042 306.445C547.997 312.489 559.645 318.813 570.905 324.932C595.068 338.059 616.035 349.451 636.114 349.451Z" fill="#FFDA35"/>
<path d="M66.5625 318.213C65.0239 318.55 63.5003 317.574 63.1638 316.032C62.8272 314.489 63.8009 312.962 65.3395 312.624C66.8781 312.287 68.4016 313.263 68.7382 314.805C69.0747 316.348 68.1011 317.876 66.5625 318.213Z" fill="#FFDA35"/>
<path d="M638.901 342.835C639.13 342.835 639.355 342.835 639.583 342.829C672.05 342.377 702.744 310.811 725.159 287.759C727.175 285.686 729.116 283.685 730.982 281.796L730.081 280.905C728.215 282.797 726.273 284.797 724.251 286.876C701.993 309.765 671.509 341.117 639.565 341.563C639.346 341.563 639.124 341.566 638.904 341.566C618.755 341.566 597.603 329.274 573.15 315.065C562.446 308.846 551.379 302.414 539.121 296.174C434.854 243.159 316.539 253.162 213.823 266.702C147.354 275.469 100.03 284.532 87.1083 287.102L87.3547 288.346C100.264 285.779 147.555 276.72 213.988 267.955C316.512 254.442 434.602 244.449 538.547 297.304C550.772 303.522 561.824 309.946 572.513 316.158C597.122 330.461 618.413 342.832 638.898 342.832L638.901 342.835Z" fill="#FFDA35"/>
<path d="M87.9077 290.552C86.3571 290.841 84.8696 289.814 84.5811 288.262C84.2926 286.707 85.3174 285.216 86.865 284.927C88.4156 284.637 89.9061 285.665 90.1916 287.216C90.4801 288.768 89.4553 290.263 87.9077 290.552Z" fill="#FFDA35"/>
<path d="M641.262 336.944C672.864 336.944 702.25 307.047 723.814 285.107C726.303 282.58 728.692 280.148 730.979 277.867L730.086 276.97C727.796 279.25 725.404 281.685 722.916 284.219C701.102 306.412 671.199 336.836 639.498 335.643C619.644 334.908 598.738 322.058 574.532 307.174C562.674 299.886 550.416 292.35 536.614 285.065C429.679 228.658 301.555 238.263 189.851 251.691C116.47 260.519 64.0375 269.748 49.7154 272.366L49.9407 273.616C64.2538 270.998 116.653 261.776 190.001 252.954C301.51 239.549 429.408 229.953 536.022 286.189C549.788 293.456 562.031 300.982 573.868 308.259C598.227 323.233 619.262 336.164 639.45 336.911C640.054 336.935 640.658 336.944 641.262 336.944Z" fill="#FF266C"/>
<path d="M50.4581 275.822C48.9045 276.087 47.429 275.038 47.1645 273.484C46.9001 271.926 47.9459 270.447 49.4995 270.181C51.0531 269.916 52.5286 270.965 52.7931 272.522C53.0575 274.08 52.0118 275.559 50.4581 275.825V275.822Z" fill="#FF266C"/>
<path d="M48.8203 403.752C62.6736 399.155 113.447 382.647 185.082 363.304C294.487 333.769 420.276 305.333 528.594 342.039C541.912 346.556 553.86 351.497 565.418 356.272C590.811 366.769 612.724 375.847 633.762 372.873C671.656 367.516 711.738 323.115 731 301.775L730.062 300.925C710.899 322.151 671.025 366.323 633.585 371.614C612.907 374.521 591.123 365.522 565.899 355.097C554.323 350.31 542.354 345.363 528.997 340.834C420.348 304.023 294.334 332.497 184.751 362.078C113.081 381.43 62.283 397.947 48.4207 402.547L48.8203 403.749V403.752Z" fill="#C3F7F7"/>
<path d="M49.6406 405.864C48.1411 406.343 46.5334 405.515 46.0556 404.008C45.5778 402.502 46.4042 400.893 47.9068 400.414C49.4063 399.935 51.014 400.767 51.4918 402.27C51.9696 403.776 51.1402 405.385 49.6406 405.864Z" fill="#C3F7F7"/>
<path d="M5.01764 357.284C16.1274 354.232 75.7419 338.113 158.465 320.159C278.992 294.013 416.862 269.913 527.731 315.197C542.876 321.386 556.82 328.388 569.122 334.567C593.695 346.902 614.899 357.556 635.15 356.736C670.477 355.284 704.87 318.74 727.628 294.559L730.99 290.989L730.074 290.118L726.708 293.688C704.092 317.722 669.912 354.039 635.099 355.471C615.205 356.263 594.11 345.694 569.69 333.434C557.367 327.246 543.399 320.235 528.208 314.025C477.561 293.339 418.067 285.309 346.36 289.476C283.449 293.131 218.747 305.788 158.198 318.924C75.4444 336.884 15.8029 353.015 4.68414 356.064L5.02069 357.287L5.01764 357.284Z" fill="#F2F5F8"/>
<path d="M5.72696 359.435C4.20339 359.836 2.64373 358.923 2.24105 357.396C1.84138 355.868 2.75192 354.301 4.2785 353.901C5.80206 353.5 7.36172 354.413 7.76139 355.94C8.16107 357.468 7.25053 359.035 5.72696 359.435Z" fill="#F2F5F8"/>
<path d="M662.977 281.872C684.884 281.872 703.167 265.063 718.403 251.053C722.79 247.021 726.934 243.213 730.928 239.983L730.134 238.995C726.111 242.246 721.952 246.069 717.549 250.116C698.212 267.895 676.287 288.048 648.219 277.958C629.882 271.357 610.548 252.743 588.166 231.195C575.761 219.251 561.701 205.715 546.158 192.651C499.021 153.046 442.886 123.514 374.548 102.363C309.149 82.1224 238.755 71.6044 178.519 63.9818C93.8541 53.283 32.085 48.9203 20.5606 48.155L20.4764 49.4235C31.9949 50.1887 93.7308 54.5454 178.359 65.2442C305.945 81.3843 439.376 104.593 545.347 193.627C560.856 206.664 574.902 220.185 587.289 232.114C609.779 253.764 629.2 272.462 647.793 279.157C653.036 281.043 658.097 281.878 662.977 281.878V281.872Z" fill="#FF266C"/>
<path d="M20.4436 51.6923C18.8719 51.5688 17.6969 50.1919 17.8201 48.6191C17.9434 47.0434 19.3167 45.8653 20.8853 45.9889C22.4569 46.1124 23.6319 47.4893 23.5087 49.065C23.3855 50.6408 22.0122 51.8188 20.4436 51.6953V51.6923Z" fill="#FF266C"/>
<path d="M655.93 300.494C680.8 300.494 702.031 280.275 719.511 263.628C723.529 259.802 727.327 256.187 730.945 253.023L730.113 252.068C726.474 255.253 722.669 258.874 718.643 262.71C698.959 281.453 674.45 304.782 645.671 298.033C626.655 293.568 606.653 276.789 583.496 257.362C571.932 247.66 558.827 236.666 544.568 226.163C439.46 148.777 308.986 136.843 194.944 131.736C119.234 128.355 65.1672 128.985 50.3913 129.265L50.4154 130.534C65.1763 130.263 119.213 129.624 194.887 133.004C308.746 138.105 438.997 150.009 543.82 227.188C558.046 237.669 571.136 248.648 582.684 258.335C605.968 277.867 626.075 294.737 645.382 299.268C648.967 300.109 652.489 300.497 655.933 300.497L655.93 300.494Z" fill="#D2DCE5"/>
<path d="M50.5714 132.796C48.9967 132.805 47.7105 131.534 47.6985 129.952C47.6895 128.373 48.9577 127.084 50.5353 127.072C52.11 127.063 53.3961 128.334 53.4081 129.916C53.4201 131.495 52.149 132.784 50.5744 132.796H50.5714Z" fill="#D2DCE5"/>
<path d="M653.186 307.52C679.234 307.52 701.814 285.752 720.298 267.934C724.055 264.312 727.601 260.893 730.951 257.883L730.107 256.937C726.738 259.962 723.186 263.391 719.421 267.021C699.242 286.475 674.11 310.684 645.25 305.553C625.798 302.085 605.403 285.888 581.783 267.133C570.547 258.208 558.926 248.983 545.887 239.781C453.079 174.311 345.975 158.924 213.71 155.972C144.029 154.426 94.232 156.282 80.6281 156.891L80.6852 158.159C94.2771 157.553 144.038 155.701 213.68 157.24C345.714 160.19 452.61 175.531 545.157 240.818C558.166 249.998 569.772 259.215 580.992 268.127C604.747 286.991 625.26 303.281 645.024 306.803C647.78 307.294 650.5 307.523 653.183 307.523L653.186 307.52Z" fill="#98AEC4"/>
<path d="M80.9047 160.419C79.3301 160.47 78.0109 159.229 77.9598 157.65C77.9087 156.071 79.1468 154.748 80.7215 154.7C82.2961 154.649 83.6154 155.89 83.6664 157.469C83.7175 159.048 82.4794 160.371 80.9047 160.419Z" fill="#98AEC4"/>
<path d="M659.898 290.076C683.112 290.076 702.684 271.79 718.905 256.63C723.133 252.68 727.124 248.95 730.938 245.753L730.126 244.78C726.289 247.998 722.283 251.74 718.043 255.702C699.054 273.441 675.428 295.529 647.009 286.849C628.402 281.161 608.788 263.366 586.078 242.761C573.965 231.773 560.238 219.318 545.152 207.357C498.18 170.123 442.722 143.14 375.61 124.857C311.295 107.34 242.563 99.6395 183.814 94.4151C101.698 87.1269 41.9333 85.2167 30.7875 84.9094L30.7515 86.1748C41.8912 86.4852 101.62 88.3893 183.7 95.6775C308.236 106.75 438.668 124.568 544.371 208.348C559.417 220.282 573.133 232.725 585.231 243.701C608.054 264.409 627.765 282.29 646.639 288.06C651.183 289.446 655.607 290.073 659.898 290.073V290.076Z" fill="#D2DCE5"/>
<path d="M30.8052 88.4466C29.2306 88.3833 28.0045 87.0516 28.0646 85.4759C28.1278 83.8971 29.456 82.6678 31.0276 82.7311C32.6023 82.7944 33.8284 84.1231 33.7652 85.7018C33.7021 87.2806 32.3769 88.5098 30.8022 88.4496L30.8052 88.4466Z" fill="#D2DCE5"/>
<path d="M644.557 328.909C674.481 328.909 702.29 301.088 722.74 280.63C725.613 277.756 728.359 275.008 730.971 272.474L730.093 271.561C727.476 274.101 724.723 276.855 721.844 279.732C701.031 300.555 672.489 329.03 642.276 327.586C622.109 326.586 601.008 312.603 576.576 296.412C566.179 289.521 555.427 282.396 543.53 275.373C451.364 220.993 349.652 215.308 225.308 223.5C160.54 227.775 114.533 233.65 101.978 235.349L102.146 236.606C114.692 234.91 160.664 229.037 225.39 224.765C349.499 216.591 451.001 222.249 542.887 276.463C554.754 283.468 565.491 290.585 575.879 297.466C600.467 313.76 621.701 327.83 642.213 328.849C642.997 328.888 643.782 328.906 644.56 328.906L644.557 328.909Z" fill="#F2F5F8"/>
<path d="M102.561 238.841C100.995 239.034 99.5741 237.917 99.3847 236.347C99.1924 234.78 100.307 233.352 101.87 233.162C103.436 232.972 104.857 234.087 105.049 235.657C105.239 237.227 104.127 238.652 102.561 238.841Z" fill="#F2F5F8"/>
<path d="M641.206 337.053C672.913 337.053 702.185 307.228 723.698 285.306C726.229 282.73 728.654 280.257 730.977 277.943L730.084 277.045C727.761 279.359 725.33 281.835 722.8 284.417C700.923 306.71 670.971 337.188 638.916 335.73C619.254 334.799 598.492 322.055 574.449 307.294C562.579 300.006 549.122 291.748 534.52 284.155C485.805 258.844 429.151 245.126 361.321 242.216C298.896 239.537 235.183 246.202 175.629 253.797C96.1116 263.954 38.5797 274.517 27.8516 276.533L28.086 277.777C38.8051 275.764 96.3099 265.207 175.788 255.057C297.649 239.507 425.686 229.037 533.937 285.282C548.497 292.854 561.356 300.747 573.788 308.379C597.978 323.227 618.87 336.049 638.853 336.998C639.638 337.035 640.422 337.053 641.203 337.053H641.206Z" fill="#C3F7F7"/>
<path d="M28.6199 279.982C27.0663 280.257 25.5878 279.217 25.3143 277.659C25.0409 276.102 26.0806 274.619 27.6312 274.345C29.1849 274.071 30.6633 275.114 30.9368 276.668C31.2103 278.223 30.1705 279.708 28.6199 279.979V279.982Z" fill="#C3F7F7"/>
<path d="M648.199 320.136C676.378 320.136 701.242 295.656 721.442 275.771C724.786 272.474 727.948 269.365 730.965 266.524L730.099 265.599C727.07 268.449 723.906 271.565 720.555 274.864C699.388 295.704 673.057 321.627 643.442 318.623C623.585 316.589 602.781 301.703 578.692 284.466C567.904 276.747 556.746 268.763 544.326 260.857C451.782 201.994 347.6 192.566 219.641 196.537C152.616 198.622 104.95 203 91.935 204.293L92.0582 205.555C105.061 204.262 152.694 199.888 219.677 197.806C347.401 193.853 451.374 203.235 543.644 261.932C556.034 269.817 567.177 277.792 577.95 285.499C602.186 302.841 623.116 317.819 643.307 319.888C644.945 320.054 646.577 320.136 648.193 320.136H648.199Z" fill="#FF7830"/>
<path d="M92.3977 207.803C90.8291 207.938 89.4437 206.772 89.3085 205.197C89.1733 203.624 90.3363 202.235 91.9079 202.099C93.4765 201.964 94.8619 203.13 94.9971 204.705C95.1323 206.278 93.9693 207.667 92.3977 207.8V207.803Z" fill="#FF7830"/>
<path d="M648.799 318.647C676.873 318.647 701.274 294.607 721.194 274.987C724.629 271.601 727.875 268.404 730.961 265.515L730.095 264.587C726.997 267.488 723.746 270.691 720.305 274.08C698.867 295.198 672.182 321.476 641.644 316.839C622.526 313.926 602.326 299.304 578.938 282.375C566.563 273.42 552.541 263.27 537.161 253.776C428.42 186.706 295.365 187.384 168.404 193.823C84.863 198.068 24.1606 204.464 12.8406 205.702L12.9788 206.962C24.2928 205.724 84.9592 199.33 168.467 195.088C295.233 188.652 428.068 187.978 536.497 254.852C551.838 264.321 565.842 274.457 578.195 283.399C601.719 300.425 622.033 315.128 641.452 318.087C643.925 318.463 646.377 318.641 648.796 318.641L648.799 318.647Z" fill="#98AEC4"/>
<path d="M13.3429 209.206C11.7742 209.36 10.3798 208.209 10.2266 206.636C10.0733 205.064 11.2213 203.663 12.7899 203.512C14.3586 203.358 15.7529 204.509 15.9062 206.082C16.0595 207.655 14.9115 209.053 13.3429 209.206Z" fill="#98AEC4"/>
<path d="M664.807 276.915C685.957 276.915 703.531 260.917 718.219 247.546C722.664 243.499 726.865 239.679 730.922 236.473L730.138 235.476C726.048 238.709 721.832 242.544 717.369 246.609C698.416 263.864 676.933 283.42 649.127 272.601C630.907 265.5 611.663 246.316 589.374 224.099C576.975 211.74 562.927 197.736 547.406 184.194C500.473 143.26 444.503 112.209 376.297 89.2722C310.832 67.2539 240.324 54.9222 179.985 45.7629C95.0623 32.8828 33.2481 26.9715 21.7206 25.917L21.6035 27.1794C33.1279 28.2309 94.912 34.1392 179.796 47.0133C307.466 66.3953 440.954 93.0293 546.576 185.149C562.061 198.664 576.098 212.653 588.482 224.997C610.867 247.314 630.201 266.587 648.667 273.782C654.266 275.96 659.642 276.915 664.804 276.915H664.807Z" fill="#FFDA35"/>
<path d="M21.5185 29.4451C19.9498 29.2824 18.8109 27.8784 18.9702 26.3056C19.1325 24.7329 20.5328 23.591 22.1014 23.7537C23.6701 23.9164 24.809 25.3204 24.6467 26.8932C24.4844 28.4659 23.0841 29.6078 21.5155 29.4451H21.5185Z" fill="#FFDA35"/>
<path d="M667.625 270.209C687.282 270.209 703.205 255.924 717.672 242.948C722.276 238.817 726.624 234.918 730.912 231.637L730.146 230.628C725.816 233.939 721.449 237.856 716.827 242.002C697.995 258.892 676.653 278.042 647.924 264.089C629.251 255.012 613.017 237.781 592.463 215.964C552.568 173.624 497.929 115.638 381.946 72.3907C295.656 40.2431 195.13 21.6897 108.176 7.77612L107.977 9.02949C194.869 22.931 295.316 41.4724 381.504 73.5808C497.214 116.726 551.735 174.588 591.543 216.838C612.185 238.745 628.49 256.051 647.374 265.231C654.562 268.723 661.288 270.209 667.625 270.209Z" fill="#98AEC4"/>
<path d="M107.738 11.2741C106.184 11.009 105.138 9.53268 105.4 7.97501C105.664 6.41735 107.137 5.36886 108.69 5.63098C110.244 5.89611 111.29 7.37243 111.028 8.9301C110.764 10.4878 109.291 11.5363 107.738 11.2741Z" fill="#98AEC4"/>
<path d="M635.063 351.873C635.646 351.873 636.223 351.864 636.803 351.846C671.018 350.71 704.573 315.49 726.774 292.185C728.22 290.669 729.623 289.193 730.984 287.774L730.074 286.897C728.713 288.319 727.306 289.793 725.861 291.311C703.801 314.468 670.459 349.463 636.761 350.584C616.669 351.235 595.471 340.021 570.938 327.026C558.896 320.648 546.443 314.052 532.422 307.816C423.963 259.606 294.066 278.13 180.817 299.271C106.204 313.212 53.132 326.014 38.6445 329.605L38.9481 330.837C53.4294 327.249 106.469 314.453 181.049 300.518C294.105 279.41 423.777 260.911 531.908 308.976C545.89 315.194 558.322 321.78 570.343 328.147C594.335 340.855 615.151 351.879 635.06 351.879L635.063 351.873Z" fill="#F2F5F8"/>
<path d="M39.6056 333.001C38.073 333.362 36.5344 332.41 36.1738 330.87C35.8132 329.331 36.7628 327.791 38.2984 327.43C39.834 327.068 41.3696 328.02 41.7302 329.56C42.0908 331.099 41.1412 332.639 39.6056 333.001Z" fill="#F2F5F8"/>
<path d="M637.946 345.103C638.195 345.103 638.438 345.103 638.688 345.097C671.671 344.603 702.786 312.431 725.507 288.94C727.4 286.981 729.224 285.095 730.982 283.3L730.078 282.411C728.323 284.207 726.493 286.096 724.597 288.057C702.032 311.389 671.125 343.341 638.67 343.829C618.398 344.139 597.179 332.039 572.543 318.047C561.313 311.669 549.699 305.074 536.762 298.729C430.921 246.862 308.083 259.431 201.259 275.279C131.637 285.617 82.0839 295.827 68.5551 298.711L68.8195 299.952C82.3393 297.069 131.857 286.867 201.442 276.536C308.074 260.715 430.68 248.163 536.203 299.868C549.104 306.195 560.7 312.781 571.915 319.15C596.41 333.061 617.607 345.1 637.94 345.1L637.946 345.103Z" fill="#98AEC4"/>
<path d="M69.4063 302.148C67.8617 302.459 66.3562 301.452 66.0467 299.904C65.7371 298.355 66.7378 296.846 68.2854 296.535C69.83 296.225 71.3356 297.231 71.6451 298.78C71.9546 300.328 70.9509 301.838 69.4063 302.148Z" fill="#98AEC4"/>
<path d="M639.37 341.708C639.508 341.708 639.643 341.708 639.782 341.708C672.152 341.428 702.627 310.139 724.876 287.289C727.001 285.11 729.035 283.016 730.982 281.049L730.081 280.157C728.134 282.128 726.093 284.222 723.969 286.403C701.875 309.093 671.617 340.165 639.77 340.439C639.637 340.439 639.502 340.439 639.37 340.439C619.161 340.439 597.975 327.987 573.466 313.585C562.765 307.297 551.697 300.796 539.431 294.475C435.272 240.86 317.065 250.248 214.445 263.252C148 271.685 100.748 280.501 87.8506 283.004L88.091 284.249C100.98 281.748 148.195 272.935 214.604 264.511C317.035 251.529 435.014 242.15 538.851 295.604C551.087 301.907 562.14 308.4 572.826 314.682C597.494 329.177 618.821 341.708 639.373 341.708H639.37Z" fill="#05C4B8"/>
<path d="M88.6309 286.457C87.0803 286.738 85.5958 285.707 85.3133 284.149C85.0339 282.595 86.0616 281.106 87.6152 280.823C89.1658 280.543 90.6503 281.576 90.9328 283.131C91.2123 284.686 90.1815 286.174 88.6309 286.457Z" fill="#05C4B8"/>
<path d="M643.808 330.684C674.177 330.684 702.13 302.585 722.733 281.878C725.597 278.997 728.346 276.235 730.973 273.671L730.089 272.761C727.46 275.328 724.704 278.096 721.834 280.983C700.676 302.251 671.713 331.389 640.646 329.31C620.906 327.984 600.099 314.426 576.004 298.732C564.228 291.058 552.048 283.125 538.354 275.409C432.044 215.519 304.59 221.37 193.463 231.553C120.404 238.257 68.3079 245.967 54.0819 248.169L54.2773 249.423C68.4942 247.22 120.557 239.516 193.58 232.816C304.521 222.647 431.746 216.808 537.735 276.515C551.393 284.213 563.555 292.137 575.316 299.798C599.558 315.592 620.494 329.228 640.562 330.581C641.644 330.653 642.729 330.69 643.808 330.69V330.684Z" fill="#FF7830"/>
<path d="M54.7346 251.643C53.175 251.866 51.7296 250.778 51.5072 249.215C51.2848 247.651 52.3696 246.202 53.9292 245.979C55.4888 245.756 56.9343 246.844 57.1566 248.407C57.379 249.971 56.2942 251.42 54.7346 251.643Z" fill="#FF7830"/>
<path d="M2.87518 369.218C14.048 366.01 73.984 349.041 156.707 330.015C277.526 302.233 415.735 276.243 526.907 319.843C542.101 325.806 556.083 332.594 568.422 338.583C593.058 350.538 614.346 360.861 634.618 359.761C670.405 357.794 705.378 320.385 728.52 295.631L730.99 292.986L730.068 292.118L727.595 294.761C704.594 319.367 669.828 356.552 634.546 358.493C614.622 359.571 593.448 349.321 568.972 337.441C556.612 331.443 542.606 324.646 527.367 318.662C476.431 298.687 416.525 291.531 344.241 296.809C281.472 301.383 216.878 314.881 156.422 328.782C73.6685 347.818 13.7025 364.793 2.52356 368.001L2.87213 369.221L2.87518 369.218Z" fill="#D2DCE5"/>
<path d="M3.61076 371.358C2.09019 371.776 0.521572 370.882 0.100863 369.357C-0.316842 367.836 0.57563 366.26 2.09619 365.838C3.61676 365.419 5.18545 366.314 5.60616 367.839C6.02387 369.363 5.13132 370.939 3.61076 371.358Z" fill="#D2DCE5"/>
</g>
<g filter="url(#filter0_f_53_324)">
<ellipse cx="636.5" cy="389" rx="132.5" ry="7" fill="black" fill-opacity="0.05"/>
</g>
<defs>
<filter id="filter0_f_53_324" x="484" y="362" width="305" height="54" filterUnits="userSpaceOnUse" color-interpolation-filters="sRGB">
<feFlood flood-opacity="0" result="BackgroundImageFix"/>
<feBlend mode="normal" in="SourceGraphic" in2="BackgroundImageFix" result="shape"/>
<feGaussianBlur stdDeviation="10" result="effect1_foregroundBlur_53_324"/>
</filter>
<clipPath id="clip0_53_324">
<rect width="731" height="406" fill="white" transform="matrix(-1 0 0 1 731 0)"/>
</clipPath>
</defs>
</svg>
